HIERARCHY
ROOT Pelvis
{
	OFFSET 0.000000 0.000000 0.000000
	CHANNELS 6 Xposition Yposition Zposition Xrotation Yrotation Zrotation
	JOINT LeftUpLeg_virtual
	{
		OFFSET 0.000000 0.000000 0.000000
		CHANNELS 3 Xrotation Yrotation Zrotation
		JOINT LeftUpLeg
		{
			OFFSET 18.735201 -5.666702 -4.541200
			CHANNELS 3 Xrotation Yrotation Zrotation
			JOINT LeftLeg
			{
				OFFSET -0.021200 -31.938179 0.493100
				CHANNELS 3 Xrotation Yrotation Zrotation
				JOINT LeftFoot
				{
					OFFSET 0.021200 -31.938179 -4.336299
					CHANNELS 3 Xrotation Yrotation Zrotation
					JOINT LeftToeBase
					{
						OFFSET 0.943001 -26.722000 15.023500
						CHANNELS 3 Xrotation Yrotation Zrotation
						End Site
						{
							OFFSET 0 0 0
						}
					}
				}
			}
		}
	}
	JOINT RightUpLeg_virtual
	{
		OFFSET 0.000000 0.000000 0.000000
		CHANNELS 3 Xrotation Yrotation Zrotation
		JOINT RightUpLeg
		{
			OFFSET -18.735201 -5.666702 -4.541200
			CHANNELS 3 Xrotation Yrotation Zrotation
			JOINT RightLeg
			{
				OFFSET 0.018946 -31.938133 0.493100
				CHANNELS 3 Xrotation Yrotation Zrotation
				JOINT RightFoot
				{
					OFFSET -0.018946 -31.938126 -4.336299
					CHANNELS 3 Xrotation Yrotation Zrotation
					JOINT RightToeBase
					{
						OFFSET -0.943001 -26.722004 15.023500
						CHANNELS 3 Xrotation Yrotation Zrotation
						End Site
						{
							OFFSET 0 0 0
						}
					}
				}
			}
		}
	}
	JOINT Hips_virtual
	{
		OFFSET 0.000000 0.000000 0.000000
		CHANNELS 3 Xrotation Yrotation Zrotation
		JOINT Hips
		{
			OFFSET -0.000000 -0.000000 -0.000000
			CHANNELS 3 Xrotation Yrotation Zrotation
			JOINT Spine
			{
				OFFSET 0.000000 10.199997 -0.299500
				CHANNELS 3 Xrotation Yrotation Zrotation
				JOINT Spine1
				{
					OFFSET 0.000000 11.900002 -1.516600
					CHANNELS 3 Xrotation Yrotation Zrotation
					JOINT Spine2
					{
						OFFSET 0.000000 13.600006 -2.842500
						CHANNELS 3 Xrotation Yrotation Zrotation
						JOINT Neck_virtual
						{
							OFFSET 0.000000 0.000000 0.000000
							CHANNELS 3 Xrotation Yrotation Zrotation
							JOINT Neck
							{
								OFFSET 0.000000 9.624100 -2.890100
								CHANNELS 3 Xrotation Yrotation Zrotation
								JOINT Head
								{
									OFFSET 0.000000 14.068802 -1.351900
									CHANNELS 3 Xrotation Yrotation Zrotation
									End Site
									{
										OFFSET 0 0 0
									}
								}
							}
						}
						JOINT LeftShoulder_virtual
						{
							OFFSET 0.000000 0.000000 0.000000
							CHANNELS 3 Xrotation Yrotation Zrotation
							JOINT LeftShoulder
							{
								OFFSET 15.263000 10.923401 -0.547700
								CHANNELS 3 Xrotation Yrotation Zrotation
								JOINT LeftArm
								{
									OFFSET 25.438599 -2.830597 -13.032500
									CHANNELS 3 Xrotation Yrotation Zrotation
									JOINT LeftForeArm
									{
										OFFSET 29.960503 0.000000 0.000000
										CHANNELS 3 Xrotation Yrotation Zrotation
										JOINT LeftHand
										{
											OFFSET 27.849251 0.000000 0.000000
											CHANNELS 3 Xrotation Yrotation Zrotation
											End Site
											{
												OFFSET 0 0 0
											}
										}
									}
								}
							}
						}
						JOINT RightShoulder_virtual
						{
							OFFSET 0.000000 0.000000 0.000000
							CHANNELS 3 Xrotation Yrotation Zrotation
							JOINT RightShoulder
							{
								OFFSET -15.263000 10.923401 -0.547700
								CHANNELS 3 Xrotation Yrotation Zrotation
								JOINT RightArm
								{
									OFFSET -25.438599 -2.830597 -13.032500
									CHANNELS 3 Xrotation Yrotation Zrotation
									JOINT RightForeArm
									{
										OFFSET -29.960503 0.000000 0.000000
										CHANNELS 3 Xrotation Yrotation Zrotation
										JOINT RightHand
										{
											OFFSET -27.849251 0.000000 0.000000
											CHANNELS 3 Xrotation Yrotation Zrotation
											End Site
											{
												OFFSET 0 0 0
											}
										}
									}
								}
							}
						}
					}
				}
			}
		}
	}
}
MOTION
Frames: 6
Frame Time: 0.03333333
-1.975489 90.846939 3.444656 0.000000 0.000000 0.000000 7.370426 -24.950903 2.355787 -32.380352 4.114675 16.544354 42.291835 11.345518 -5.800815 -7.994049 13.990889 -6.902692 0.000000 0.000000 0.000000 9.486534 -48.607424 9.189236 -26.560311 -19.939395 -13.880421 30.436341 -3.238405 -1.887449 -21.333761 -6.183856 6.004404 0.000000 0.000000 0.000000 -6.149520 -19.493589 0.755513 -5.204584 1.145033 2.006170 6.450483 -3.219184 -2.038483 2.358048 -1.788398 -0.965140 0.000000 0.000000 0.000000 3.720150 -1.607204 -0.126530 -0.182275 0.027335 0.178535 0.000000 0.000000 0.000000 3.980942 -3.104373 -1.217378 0.998320 -8.702283 -13.550677 -3.963657 -13.370849 -41.202013 5.568617 -51.423470 3.904802 0.000000 0.000000 0.000000 4.284822 -0.396477 0.434785 1.985415 7.867379 6.603472 -6.334597 28.856426 44.644350 39.263691 87.497592 -35.961731 0.000000 0.000000 0.000000 
-2.363841 90.907784 3.600264 0.000000 0.000000 0.000000 7.291693 -25.629532 2.394883 -32.504676 3.911703 16.508159 42.740455 11.445625 -5.863925 -7.650364 14.105494 -6.905392 0.000000 0.000000 0.000000 9.932844 -48.799697 9.572251 -26.156689 -20.118945 -13.673719 30.168263 -3.085191 -2.029412 -21.471833 -5.986826 5.868554 0.000000 0.000000 0.000000 -6.226379 -19.914040 0.732332 -5.276342 0.315920 2.010919 6.388357 -3.166032 -2.063671 2.316989 -1.755015 -0.979762 0.000000 0.000000 0.000000 3.708474 -1.591699 -0.146107 -0.193856 0.042172 0.176256 0.000000 0.000000 0.000000 3.949067 -3.086065 -1.243988 0.998582 -8.632826 -13.570846 -4.199196 -13.451166 -41.386753 5.441541 -51.622925 3.806795 0.000000 0.000000 0.000000 4.250386 -0.366688 0.398378 1.973459 7.920800 6.531323 -6.252435 28.762975 44.425504 39.220865 87.460169 -35.960092 0.000000 0.000000 0.000000 
-2.742884 90.985832 3.754236 0.000000 0.000000 0.000000 7.157951 -26.210277 2.385860 -32.687820 3.735812 16.448197 43.157534 11.515060 -5.889897 -7.314375 14.177133 -6.872763 0.000000 0.000000 0.000000 10.381717 -48.942578 9.946455 -25.730550 -20.284946 -13.459687 29.903330 -2.944782 -2.159913 -21.597362 -5.805964 5.739377 0.000000 0.000000 0.000000 -6.307071 -20.343220 0.705633 -5.381792 -0.529318 2.026384 6.324533 -3.104166 -2.087105 2.274303 -1.717486 -0.993357 0.000000 0.000000 0.000000 3.696193 -1.573633 -0.164868 -0.205651 0.058070 0.173738 0.000000 0.000000 0.000000 3.914241 -3.065110 -1.271727 0.998837 -8.559587 -13.596082 -4.432666 -13.536942 -41.573640 5.316241 -51.828527 3.709491 0.000000 0.000000 0.000000 4.215302 -0.333759 0.362628 1.962108 7.982845 6.467505 -6.182186 28.661332 44.231219 38.919371 87.414496 -35.697810 0.000000 0.000000 0.000000 
-3.101521 91.081375 3.905359 0.000000 0.000000 0.000000 6.975733 -26.762836 2.335846 -32.927051 3.569814 16.362896 43.550796 11.517189 -5.864293 -6.976836 14.164084 -6.808233 0.000000 0.000000 0.000000 10.847039 -49.039778 10.321293 -25.273182 -20.440191 -13.235839 29.661585 -2.815067 -2.276657 -21.701374 -5.639729 5.622844 0.000000 0.000000 0.000000 -6.387797 -20.783477 0.675124 -5.501720 -1.377151 2.014696 6.262757 -3.034596 -2.110398 2.231983 -1.676338 -1.006775 0.000000 0.000000 0.000000 3.686263 -1.553769 -0.183700 -0.216171 0.074677 0.170402 0.000000 0.000000 0.000000 3.877418 -3.041792 -1.301177 0.999596 -8.483481 -13.629068 -4.656577 -13.633128 -41.759469 5.198766 -52.043463 3.617355 0.000000 0.000000 0.000000 4.181221 -0.298492 0.326596 1.953634 8.050757 6.407301 -6.118744 28.551101 44.058822 38.416208 87.360025 -35.231564 0.000000 0.000000 0.000000 
-3.430734 91.192535 4.063868 0.000000 0.000000 0.000000 6.751576 -27.324049 2.249381 -33.209394 3.404045 16.248870 43.881442 11.416692 -5.773622 -6.656888 14.029257 -6.719867 0.000000 0.000000 0.000000 11.323201 -49.086978 10.690540 -24.787504 -20.580683 -13.003541 29.435137 -2.696876 -2.379917 -21.787931 -5.489143 5.517833 0.000000 0.000000 0.000000 -6.469856 -21.222590 0.639711 -5.685928 -2.220370 1.971600 6.198859 -2.954133 -2.132892 2.187985 -1.630033 -1.019610 0.000000 0.000000 0.000000 3.678687 -1.531664 -0.203846 -0.225376 0.092325 0.165488 0.000000 0.000000 0.000000 3.837469 -3.015325 -1.331823 1.000332 -8.401376 -13.667617 -4.854402 -13.731000 -41.935241 5.094764 -52.250899 3.534126 0.000000 0.000000 0.000000 4.146472 -0.261328 0.291379 1.946032 8.122706 6.354413 -6.062559 28.445945 43.912365 37.844760 87.304120 -34.692716 0.000000 0.000000 0.000000 
-3.745218 91.317795 4.212183 0.000000 0.000000 0.000000 6.507895 -27.881462 2.134485 -33.500705 3.243753 16.108941 44.159567 11.216208 -5.623346 -6.353937 13.779260 -6.612041 0.000000 0.000000 0.000000 11.812010 -49.092688 11.050193 -24.278652 -20.704236 -12.767685 29.213703 -2.590457 -2.471004 -21.863782 -5.354294 5.422086 0.000000 0.000000 0.000000 -6.542958 -21.647255 0.598258 -5.907969 -3.039105 1.908892 6.137161 -2.865016 -2.154703 2.144513 -1.579724 -1.031933 0.000000 0.000000 0.000000 3.676964 -1.507892 -0.224704 -0.231574 0.109628 0.159572 0.000000 0.000000 0.000000 3.796061 -2.986784 -1.363933 1.001175 -8.323993 -13.711426 -5.035014 -13.833029 -42.106542 5.000405 -52.457021 3.456539 0.000000 0.000000 0.000000 4.112436 -0.222338 0.256817 1.941057 8.191344 6.309989 -6.014257 28.338491 43.786113 37.173407 87.243666 -34.052198 0.000000 0.000000 0.000000 
